<svg width="43" height="43" viewBox="0 0 43 43" fill="none" xmlns="http://www.w3.org/2000/svg">
<rect x="0.5" width="42.5" height="42.5" rx="12" fill="#7446E8"/>
<path d="M30.5 21.25C30.502 21.5064 30.4241 21.757 30.2771 21.967C30.13 22.177 29.9213 22.336 29.6797 22.4219L24.7235 24.2242L22.9219 29.1797C22.8331 29.4189 22.6732 29.6252 22.4637 29.7709C22.2542 29.9166 22.0052 29.9947 21.75 29.9947C21.4948 29.9947 21.2458 29.9166 21.0363 29.7709C20.8268 29.6252 20.6669 29.4189 20.5781 29.1797L18.7766 24.2234L13.8203 22.4219C13.5811 22.3331 13.3748 22.1732 13.2291 21.9637C13.0834 21.7542 13.0053 21.5052 13.0053 21.25C13.0053 20.9948 13.0834 20.7458 13.2291 20.5363C13.3748 20.3268 13.5811 20.1669 13.8203 20.0781L18.7766 18.2766L20.5781 13.3203C20.6669 13.0811 20.8268 12.8748 21.0363 12.7291C21.2458 12.5834 21.4948 12.5053 21.75 12.5053C22.0052 12.5053 22.2542 12.5834 22.4637 12.7291C22.6732 12.8748 22.8331 13.0811 22.9219 13.3203L24.7242 18.2766L29.6797 20.0781C29.9213 20.164 30.13 20.323 30.2771 20.533C30.4241 20.743 30.502 20.9936 30.5 21.25Z" fill="white"/>
</svg>
